<?xml version="1.0" encoding="UTF-8"?>
<svg id="Layer_1" xmlns="http://www.w3.org/2000/svg" version="1.1" viewBox="0 0 2160 2160">
  <!-- Generator: Adobe Illustrator 30.2.1, SVG Export Plug-In . SVG Version: 2.1.1 Build 1)  -->
  <defs>
    <style>
      .st0, .st1 {
        fill: #010101;
      }

      .st1 {
        display: none;
        font-family: Modesfa, Modesfa;
        font-size: 675.38px;
        letter-spacing: -.06em;
      }
    </style>
  </defs>
  <g>
    <g>
      <path d="M880.39,1201.28c169.74,42.68,353.06,32.99,507.24-53.42,33.59-18.82,82.36-56.1,75.12-98.93-4.27-25.27-20.99-45.95-39.44-63.21-68.55-64.17-200.56-96.59-294.72-107.42l8.23-48.07,205.3-72.32c65.18-22.96,139.52-52.95,179.15-113.38,48.67-74.23-4.53-148.24-69.5-189.14-152.66-96.07-369.75-115.44-544.1-80.45-70.66,14.18-237.49,63.19-232.34,155.71,6.31,18.25,14.91,33.06,26.99,48.96l-116.01,40.06c-51.95-87.7-30.77-198.83,51.64-259.62,73.21-54.01,186.22-86.04,276.57-95.74,176.42-18.95,391.35,13.36,542,110.89,77.78,50.36,158.3,135.9,133.41,236.44-27.76,103.15-150.08,157.4-245.26,158.76,87.18,32.37,180.91,95.35,225.4,177.01,41.74,79.64,29.04,172.38-33.07,237.5-65.55,68.73-165.2,105.15-258.3,121.15-230.44,39.62-533.87-10.89-690.36-199.79-32.49-39.22-52.07-85.21-54.15-136.59-2.03-50.13,11.28-99.65,45.77-137.43,2.66-2.92,9.17,9.38,6.81,12.8-53.67,77.82-44.46,172.57,30.09,230.45,77.91,60.49,167.31,101.59,263.54,125.78Z"/>
      <path d="M354.31,1296.77l-261.12-.08c41.68-42.12,71.39-88.09,71.39-146.59V427.77c0-58.54-29.75-104.42-71.4-146.61l261.38-.11c-39.69,39.37-72.93,87.5-72.94,144.12l-.06,724.88c0,59.04,31.1,104.44,72.74,146.71Z"/>
      <path d="M2033.14,1292.43l-258.21-.24c44.69-44.92,71.19-88.88,71.2-150.76l.05-702.06c0-65.22-25.91-108.7-72.11-153.99l259.43.11c-40.55,42.19-71.75,86.66-71.76,145.23l-.13,707.79c-.01,69.16,27.38,105.43,71.54,153.93Z"/>
    </g>
    <g>
      <path class="st0" d="M136.18,1456.46l-47.28-40.52h330.26l13.51,80.37-135.08-73.62h-107.39v225.58h210.04v6.75h-210.04v191.81l47.28,40.52H88.91l47.28-40.52v-390.37Z"/>
      <path class="st0" d="M442.81,1645.57c0-160.07,92.53-243.14,215.45-243.14s216.12,83.07,216.12,243.14-92.53,242.46-216.12,242.46-215.45-82.4-215.45-242.46ZM499.54,1645.57c0,128.32,49.3,235.71,158.72,235.71s158.72-107.39,158.72-235.71-48.63-236.38-158.72-236.38-158.72,108.06-158.72,236.38Z"/>
      <path class="st0" d="M1026.34,1422.69l-135.08,73.62,13.51-80.37h364.03l13.51,80.37-135.08-73.62h-33.77v424.14l47.28,40.52h-147.91l46.6-40.52v-424.14h-33.09Z"/>
      <path class="st0" d="M1299.19,1645.57c0-160.07,92.53-243.14,215.45-243.14s216.12,83.07,216.12,243.14-92.53,242.46-216.12,242.46-215.45-82.4-215.45-242.46ZM1355.92,1645.57c0,128.32,49.3,235.71,158.72,235.71s158.71-107.39,158.71-235.71-48.63-236.38-158.71-236.38-158.72,108.06-158.72,236.38Z"/>
      <path class="st0" d="M1901.63,1900.86c-52,0-108.74-7.43-141.16-13.51v-93.88c33.09,60.78,91.18,100.63,141.16,100.63,64.16,0,102.66-37.15,102.66-95.9,0-74.29-69.56-104.68-129-139.13-72.27-41.87-114.82-65.51-114.82-132.38s54.03-110.76,137.1-110.76c52,0,96.58,7.43,129,13.51v93.88c-32.42-60.78-79.02-100.63-129-100.63-56.73,0-96.58,28.37-96.58,74.29,0,55.38,68.21,90.5,114.14,118.87,74.97,45.93,137.1,72.27,137.1,157.36,0,74.97-54.03,127.65-150.61,127.65Z"/>
    </g>
  </g>
  <text class="st1" transform="translate(54.46 1858.53)"><tspan x="0" y="0">Fotos</tspan></text>
</svg>