<?xml version="1.0" encoding="UTF-8"?>
<svg id="Layer_1" xmlns="http://www.w3.org/2000/svg" version="1.1" viewBox="0 0 174 197">
  <defs>
    <style>
      .st0 {
        fill: #d4d4d4;
      }
    </style>
  </defs>
  <path class="st0" d="M156.7,43.9"/>
  <g>
    <g>
      <path class="st0" d="M127.5,67.5c-2.3,2.7-5.5,4.8-9.1,6.1-2.7,1-5.6,1.5-8.3,1.5h0c-.5,0-1,0-1.2-.1-.2,0-.3,0-.3,0-.1,0-.2,0-.3-.1l.5-.2c.4-.1.8-.3,1.1-.4,1.9-.6,3.9-1.3,5.7-2.2,1.2-.5,2.3-1.1,3.4-1.8,2.6-1.6,4.6-3.4,5.8-5.2.7-1,1.1-2,1.4-3.1.4-1.6.3-3.2-.2-4.8-1-3-3.5-5.8-7.3-8.2-12.3-7.5-30.7-9.5-45.9-6-3.1.7-6.1,1.7-8.8,2.8-4.1,2-9.4,5-8.9,9.8.4,1.5,1.2,2.8,2.2,4l-9.6,3.3c-1.1-1.8-1.7-3.7-2.1-5.6-.2-1.4-.7-5.2,1.1-9.4,1.1-2.5,2.7-4.1,3.4-4.8,7-7,22.2-9.2,23.9-9.4,9.3-1.1,19.5-.4,28.6,2,1.3.3,2.5.7,3.7,1.1,10.3,3.3,18.9,8.7,22.9,16.2,0,.1.1.3.2.4.5,1.1.8,2.1,1,3.1.9,4.3-.4,8.1-2.9,11.2Z"/>
      <path class="st0" d="M129.3,91.3c-.6-1.4-1.7-3.7-4.8-6.9-5.2-5.3-11.4-8.1-16-9.7l-15.5,5.5-.2,1.2-.5,2.7c8.5.9,25.2,4.9,27.6,13.9.4,4.8-4.8,7.8-8.9,9.8-18.3,8.8-40.8,4.9-54.7-3.2-5.7-3.4-11-6.6-11.6-13.9-.2-3.6,1.1-7,3.1-9.7l-.7-.7c-4.4,5.2-4.9,12.4-2.1,18.3.5,1.2,1.2,2.3,2,3.4,9.3,12.2,26.6,18.1,43.4,18.5.7,0,1.4,0,2.1,0s.8,0,1.2,0c1.1,0,2.2,0,3.3-.1.7,0,1.4-.1,2.1-.2,10.3-1,19.8-4.1,25.7-9.6,6-5.5,7.2-12.9,4.5-19.3Z"/>
    </g>
    <path class="st0" d="M151.6,38.9h-3.6v-1.5l13.4-5.4v76.4c0,1.4.2,2.9.7,4.6.5,1.7.9,3,1.4,4l.7,1.5h-15.4c1.9-3.5,2.8-6.9,2.8-10V38.9Z"/>
    <path class="st0" d="M13.4,38.9h-3.6v-1.5l13.4-5.4v76.4c0,1.4.2,2.9.7,4.6.5,1.7.9,3,1.4,4l.7,1.5h-15.4c1.9-3.5,2.8-6.9,2.8-10V38.9Z"/>
  </g>
  <g>
    <path class="st0" d="M13,130.9l-3.7-3.2h26.2l1.1,6.4-10.7-5.8h-8.5v17.9h16.6v.5h-16.6v15.2l3.7,3.2h-11.8l3.7-3.2v-30.9Z"/>
    <path class="st0" d="M37.3,145.9c0-12.7,7.3-19.3,17.1-19.3s17.1,6.6,17.1,19.3-7.3,19.2-17.1,19.2-17.1-6.5-17.1-19.2ZM41.8,145.9c0,10.2,3.9,18.7,12.6,18.7s12.6-8.5,12.6-18.7-3.9-18.7-12.6-18.7-12.6,8.6-12.6,18.7Z"/>
    <path class="st0" d="M83.5,128.2l-10.7,5.8,1.1-6.4h28.8l1.1,6.4-10.7-5.8h-2.7v33.6l3.7,3.2h-11.7l3.7-3.2v-33.6h-2.6Z"/>
    <path class="st0" d="M105.1,145.9c0-12.7,7.3-19.3,17.1-19.3s17.1,6.6,17.1,19.3-7.3,19.2-17.1,19.2-17.1-6.5-17.1-19.2ZM109.6,145.9c0,10.2,3.9,18.7,12.6,18.7s12.6-8.5,12.6-18.7-3.9-18.7-12.6-18.7-12.6,8.6-12.6,18.7Z"/>
    <path class="st0" d="M152.8,166.1c-4.1,0-8.6-.6-11.2-1.1v-7.4c2.6,4.8,7.2,8,11.2,8s8.1-2.9,8.1-7.6-5.5-8.3-10.2-11c-5.7-3.3-9.1-5.2-9.1-10.5s4.3-8.8,10.9-8.8,7.7.6,10.2,1.1v7.4c-2.6-4.8-6.3-8-10.2-8s-7.7,2.2-7.7,5.9,5.4,7.2,9,9.4c5.9,3.6,10.9,5.7,10.9,12.5s-4.3,10.1-11.9,10.1Z"/>
  </g>
</svg>